<?xml version="1.0" standalone="no"?>
<!DOCTYPE svg PUBLIC "-//W3C//DTD SVG 20010904//EN"
 "http://www.w3.org/TR/2001/REC-SVG-20010904/DTD/svg10.dtd">
<svg version="1.0" xmlns="http://www.w3.org/2000/svg"
 width="2816.000000pt" height="1536.000000pt" viewBox="0 0 2816.000000 1536.000000"
 preserveAspectRatio="xMidYMid meet">

<g transform="translate(0.000000,1536.000000) scale(0.100000,-0.100000)"
fill="#000000" stroke="none">
<path d="M18786 14301 c-89 -122 -514 -740 -704 -1021 -79 -118 -153 -224
-162 -235 -9 -11 -81 -114 -159 -230 -79 -115 -185 -271 -236 -345 -52 -74
-176 -256 -277 -403 -101 -147 -245 -359 -321 -470 -76 -111 -178 -260 -227
-332 -49 -71 -115 -168 -147 -215 -172 -248 -295 -427 -363 -526 -41 -61 -164
-241 -272 -400 -109 -159 -198 -293 -198 -297 0 -5 458 -8 1018 -7 560 0 1043
-2 1075 -6 l57 -7 -27 -31 c-30 -36 -457 -488 -643 -681 -69 -71 -193 -199
-275 -285 -83 -85 -299 -310 -480 -500 -181 -190 -417 -437 -525 -550 -108
-113 -286 -299 -395 -415 -110 -115 -218 -228 -240 -251 -22 -22 -74 -76 -115
-120 -111 -119 -249 -263 -400 -419 -74 -77 -164 -172 -200 -210 -60 -65 -119
-127 -354 -375 -50 -52 -151 -158 -226 -235 -215 -222 -340 -353 -579 -607
-123 -131 -226 -238 -228 -238 -3 0 8 24 25 52 16 29 53 98 82 153 29 55 74
136 98 180 25 44 70 127 100 185 30 58 76 143 102 190 26 47 73 135 105 195
32 61 61 115 65 120 4 6 27 46 50 90 74 140 123 229 152 278 15 26 28 51 28
54 0 3 28 56 62 117 33 61 88 163 121 226 33 63 63 120 67 125 4 6 34 60 66
120 31 61 67 126 79 145 12 19 63 114 115 210 51 96 116 218 145 270 91 164
233 427 289 533 78 149 251 468 275 508 12 19 21 37 21 41 0 5 -478 9 -1062
10 l-1062 3 289 295 c159 162 321 327 360 365 38 39 178 183 310 320 132 137
265 275 296 305 31 30 116 118 190 195 223 233 664 690 829 860 85 88 218 225
295 305 262 272 808 835 999 1030 228 233 477 490 676 695 79 83 196 204 260
269 63 66 108 115 100 109 -8 -6 -71 -52 -140 -102 -69 -51 -163 -120 -210
-154 -47 -34 -134 -100 -195 -147 -122 -95 -345 -265 -459 -350 -84 -63 -459
-347 -841 -637 -144 -109 -288 -218 -320 -243 -33 -25 -91 -70 -129 -100 l-69
-55 -3096 -5 -3096 -5 2 -4060 c0 -2233 1 -4430 2 -4883 l1 -822 4723 2 4722
3 3 4020 2 4020 195 272 c107 150 195 275 195 278 0 3 -418 5 -930 5 -511 0
-930 2 -930 4 0 4 125 293 164 381 15 33 66 148 113 255 46 107 124 285 173
395 48 110 136 310 194 445 59 135 112 253 117 264 10 18 25 51 134 306 29 69
90 206 135 305 45 99 99 221 120 270 45 107 91 212 155 355 26 58 60 134 75
170 51 120 310 705 325 734 28 53 11 34 -59 -63z"/>
</g>
</svg>
